<svg width="57" height="58" viewBox="0 0 57 58" fill="none" xmlns="http://www.w3.org/2000/svg">
<path d="M34.7315 5.78433V22.4899L23.0351 34.723H1.31189C1.09892 34.3652 0.826322 33.6241 0.494085 32.5422C0.161848 31.4432 0 30.2506 0 28.9387C0 26.9027 0.477044 25.3096 1.42264 24.1851C2.35972 23.0607 3.81645 22.4899 5.78431 22.4899H23.0351V1.20116C23.4099 1.05634 24.0999 0.817814 25.1137 0.485577C26.136 0.15334 27.2605 0 28.5042 0C30.3954 0 31.9118 0.434465 33.0363 1.31191C34.1608 2.18084 34.7315 3.66313 34.7315 5.78433Z" fill="#F5CC00"/>
<path d="M57 28.2738C57 30.3098 56.523 31.8858 55.5859 33.0189C54.6318 34.1519 53.1836 34.7141 51.2157 34.7141H34.7316V55.9006C34.3738 56.0454 33.6753 56.284 32.653 56.6162C31.6307 56.9399 30.4637 57.1018 29.1517 57.1018C27.2605 57.1018 25.7783 56.6673 24.6793 55.7899C23.5804 54.9209 23.0352 53.4216 23.0352 51.3174V34.7226L34.7316 22.4895H55.6881C55.9181 22.8643 56.1822 23.5884 56.5144 24.6789C56.8467 25.7608 57 26.9704 57 28.2824V28.2738Z" fill="#FFE770"/>
</svg>
