<svg width="6234" height="1701" viewBox="0 0 6234 1701" fill="none" xmlns="http://www.w3.org/2000/svg">
<path d="M6135.18 850.104C6135.18 956.131 6115.26 1054.86 6075.67 1146.29C6035.96 1238.09 5981.15 1317.39 5911.37 1384.33C5841.59 1451.63 5758.7 1504.46 5663.44 1542.93C5568.17 1581.91 5465.36 1601.33 5355.87 1601.33L878.453 1601.33L878.453 99.125L5355.87 99.125C5465.36 99.125 5568.05 118.302 5663.44 155.789C5758.7 193.647 5841.59 246.104 5911.37 313.036C5981.15 380.34 6036.08 459.644 6075.67 551.073C6115.38 642.873 6135.18 742.468 6135.18 850.104Z" fill="#11A666"/>
<path d="M1657.83 850.068C1657.83 955.973 1638.04 1054.82 1598.32 1146.25C1558.61 1238.05 1503.8 1317.36 1433.9 1384.29C1364.12 1451.59 1281.23 1504.42 1185.96 1543.02C1090.7 1581.99 987.89 1601.42 878.521 1601.42C769.153 1601.42 666.342 1581.99 571.078 1543.02C475.814 1504.42 392.922 1451.59 323.144 1384.29C253.366 1317.36 198.434 1237.93 158.72 1146.25C119.006 1054.82 99.2109 955.973 99.2109 850.068C99.2109 744.164 119.006 642.838 158.72 551.038C198.434 459.609 253.242 380.305 323.144 313.001C392.922 246.069 475.814 193.612 571.078 155.753C666.342 118.266 769.153 99.0898 878.521 99.0898C987.89 99.0898 1090.7 118.266 1185.96 155.753C1281.23 193.612 1364.12 246.069 1433.9 313.001C1503.68 380.305 1558.61 459.609 1598.32 551.038C1638.04 642.838 1657.83 742.309 1657.83 850.068Z" fill="#FFDC33"/>
<path d="M461.703 809.465L461.703 1098.6C511.562 1125.45 558.452 1150.19 602.249 1172.58C646.046 1194.85 685.265 1214.28 719.659 1230.24C754.053 1246.32 782.756 1258.69 805.768 1267.23C828.78 1275.89 843.626 1280.09 850.554 1280.09C860.576 1280.09 869.236 1277.37 876.659 1271.81C879.381 1276.75 880.989 1279.48 881.855 1280.09C893.856 1276.63 910.311 1270.82 931.343 1262.53C952.128 1254.24 975.511 1244.22 1001.49 1232.46C1027.23 1220.71 1054.2 1207.97 1082.28 1194.6C1110.37 1181.24 1137.71 1167.76 1164.31 1154.52C1190.91 1141.28 1215.77 1129.03 1238.79 1117.16C1261.8 1105.4 1280.6 1095.38 1295.45 1087.46V809.589L461.703 809.589V809.465Z" fill="#0C6F44"/>
<path d="M361.695 760.35V645.538C423.431 612.01 481.703 581.575 536.016 553.862C590.329 526.025 638.951 502.147 681.511 482.476C724.194 462.433 759.702 447.216 788.157 436.699C816.489 425.936 835.047 420.492 843.584 420.492C855.956 420.492 866.719 424.08 875.874 430.885C879.215 425.07 881.318 421.729 882.184 420.492C897.278 424.699 917.692 432.122 943.549 442.514C969.654 452.907 998.604 465.155 1030.52 479.754C1062.69 494.353 1095.85 509.818 1130.98 526.644C1165.75 543.222 1199.77 559.924 1232.68 576.255C1265.72 592.463 1296.52 607.928 1324.98 622.527C1353.31 637.125 1376.82 649.497 1395.25 659.395V774.207C1333.51 807.488 1275.24 838.046 1220.93 865.883C1166.62 893.473 1117.99 917.351 1075.43 937.27C1032.75 957.312 997.244 972.53 968.788 983.046C940.209 993.809 921.898 999.006 913.362 999.006C900.99 999.006 890.226 995.665 881.071 988.613C877.73 994.675 875.627 998.016 874.513 999.006C859.667 994.799 839.253 987.5 813.149 977.231C787.291 966.839 758.341 954.59 726.174 939.991C694.254 925.392 660.85 909.68 625.961 893.102C591.195 876.523 557.172 859.821 524.263 843.49C491.23 827.035 460.424 811.818 431.968 797.219C403.389 782.62 380.13 770.248 361.695 760.35Z" fill="#10945A"/>
<path d="M361.695 646.281V645.538C423.431 612.01 481.703 581.575 536.016 553.862C590.329 526.025 638.951 502.147 681.511 482.476C724.194 462.433 759.702 447.216 788.157 436.699C816.489 425.936 835.047 420.492 843.584 420.492C855.956 420.492 866.719 424.08 875.874 430.885C879.215 425.07 881.318 421.729 882.184 420.492C897.278 424.699 917.692 432.122 943.549 442.514C969.654 452.907 998.604 465.155 1030.52 479.754C1062.69 494.353 1095.85 510.065 1130.98 526.644C1165.75 543.222 1199.77 559.924 1232.68 576.255C1265.72 592.463 1296.52 607.928 1324.98 622.527C1353.31 637.125 1376.82 649.497 1395.25 659.395V660.137C1333.51 693.418 1275.24 724.1 1220.93 751.814C1166.62 779.403 1117.99 803.528 1075.43 823.2C1032.75 843.242 997.244 858.46 968.788 868.976C940.209 879.74 921.898 884.936 913.362 884.936C900.99 884.936 890.226 881.596 881.071 874.544C877.73 880.606 875.627 883.946 874.513 884.936C859.667 880.73 839.253 873.43 813.149 863.161C787.291 852.769 758.341 840.521 726.174 825.922C694.254 811.323 660.85 795.61 625.961 779.032C591.195 762.454 557.172 745.751 524.263 729.42C491.23 712.966 460.424 697.748 431.968 683.149C403.389 668.55 380.13 656.178 361.695 646.281Z" fill="#11A666"/>
<path d="M878.619 587.875L528.492 731.514L528.492 1261.41C528.492 1271.67 536.781 1280.09 547.174 1280.09C557.443 1280.09 565.856 1271.8 565.856 1261.41L565.856 750.195L878.743 620.908V587.875H878.619Z" fill="#17DE88"/>
<path d="M972.538 628.456C972.538 638.106 970.188 647.138 965.363 655.427C960.538 663.84 953.98 671.016 945.568 677.078C937.155 683.264 927.133 688.089 915.627 691.553C904.121 695.141 891.749 696.873 878.511 696.873C865.273 696.873 852.901 695.141 841.395 691.553C829.889 688.089 819.868 683.264 811.455 677.078C803.042 671.016 796.485 663.716 791.66 655.427C786.835 647.138 784.484 638.106 784.484 628.456C784.484 618.806 786.835 609.527 791.66 601.238C796.485 592.949 803.042 585.649 811.455 579.587C819.868 573.525 829.889 568.699 841.395 565.235C852.901 561.771 865.273 560.039 878.511 560.039C891.749 560.039 904.121 561.771 915.627 565.235C927.133 568.699 937.155 573.525 945.568 579.587C953.98 585.773 960.538 592.949 965.363 601.238C970.188 609.651 972.538 618.682 972.538 628.456Z" fill="#0C6F44"/>
<path d="M5355.83 99.0995C5465.32 99.0995 5568.01 118.276 5663.27 155.763C5758.53 193.745 5841.43 246.079 5911.33 313.135C5981.11 380.438 6035.91 459.742 6075.63 551.048C6115.34 642.848 6135.14 742.442 6135.14 850.078C6135.14 957.714 6115.34 1054.96 6075.63 1146.26C6035.91 1238.06 5981.11 1317.37 5911.33 1384.3C5841.43 1451.6 5758.53 1504.43 5663.27 1543.03C5568.01 1582 5465.32 1601.43 5355.83 1601.43L878.41 1601.43C768.918 1601.43 666.231 1582 570.843 1543.03C475.579 1504.43 392.686 1451.6 322.908 1384.3C253.131 1317.37 198.199 1238.06 158.485 1146.26C118.895 1054.83 98.9758 955.982 98.9758 850.078C98.9758 744.174 118.895 642.848 158.485 551.171C198.199 459.742 253.131 380.438 322.908 313.135C392.686 246.079 475.579 193.745 570.843 155.763C666.231 118.276 768.918 99.0995 878.41 99.0995L5355.83 99.0995ZM5355.83 0.12372L878.41 0.12372C757.536 0.12372 641.858 21.5272 534.593 63.5919C426.709 106.646 332.559 166.403 254.244 241.748C174.94 318.207 112.214 409.017 67.6747 511.705C22.7644 615.877 0 729.575 0 850.078C0 970.581 22.7644 1081.93 67.6747 1185.61C112.338 1288.79 175.187 1379.72 254.368 1455.69C332.435 1531.03 426.462 1591.28 533.603 1634.71C640.126 1678.26 756.175 1700.4 878.286 1700.4L5355.7 1700.4C5477.94 1700.4 5593.99 1678.26 5700.63 1634.58C5807.4 1591.28 5901.43 1531.03 5979.87 1455.56C6058.8 1379.85 6121.65 1288.91 6166.31 1185.48C6211.23 1082.3 6233.99 969.468 6233.99 849.955C6233.99 730.441 6211.23 615.382 6166.31 511.581C6121.53 408.646 6058.8 317.836 5979.87 241.748C5901.18 166.279 5807.03 106.399 5699.77 63.7157C5592.26 21.4035 5476.58 0 5355.7 0L5355.83 0.12372Z" fill="white"/>
<path d="M2428.72 590.006H2427.36L2404.31 636.105L2342.85 747.737L2282.74 636.557L2258.79 586.843H2257.43V797H2192.8V481.538H2265.56L2342.85 629.326H2343.75L2420.13 481.538H2493.35V797H2428.72V590.006ZM2608.3 797V481.538H2822.97V542.551H2676.99V607.181H2802.18V667.742H2676.99V735.987H2822.97V797H2608.3ZM3001.23 797L2899.54 481.538H2969.14L3016.15 632.942L3041 731.919H3042.36L3066.31 632.942L3113.32 481.538H3180.66L3078.06 797H3001.23ZM3419.16 481.538H3572.37C3598.58 481.538 3618.92 488.92 3633.38 503.684C3648.15 518.447 3655.53 538.032 3655.53 562.437C3655.53 574.489 3653.87 584.734 3650.56 593.17C3647.55 601.606 3643.33 608.536 3637.9 613.96C3632.78 619.383 3626.6 623.451 3619.37 626.162C3612.44 628.573 3604.91 629.929 3596.78 630.23V632.942C3604.31 632.942 3612.14 634.298 3620.28 637.009C3628.71 639.721 3636.4 644.09 3643.33 650.116C3650.26 655.841 3655.98 663.373 3660.5 672.713C3665.32 682.054 3667.73 693.503 3667.73 707.062C3667.73 719.415 3665.62 731.166 3661.4 742.314C3657.49 753.161 3651.91 762.652 3644.68 770.787C3637.45 778.922 3628.86 785.4 3618.92 790.221C3608.98 794.74 3598.13 797 3586.38 797H3419.16V481.538ZM3487.86 739.15H3566.95C3575.99 739.15 3583.07 736.74 3588.19 731.919C3593.61 726.797 3596.32 719.716 3596.32 710.677V695.311C3596.32 686.272 3593.61 679.342 3588.19 674.521C3583.07 669.399 3575.99 666.838 3566.95 666.838H3487.86V739.15ZM3487.86 610.796H3556.1C3565.14 610.796 3572.22 608.235 3577.34 603.113C3582.46 597.991 3585.03 590.91 3585.03 581.871V568.313C3585.03 559.274 3582.46 552.193 3577.34 547.071C3572.22 541.949 3565.14 539.388 3556.1 539.388H3487.86V610.796ZM3834.5 797H3765.8V481.538H3915.4C3929.86 481.538 3942.97 483.948 3954.72 488.769C3966.47 493.59 3976.41 500.52 3984.55 509.559C3992.98 518.297 3999.46 528.842 4003.98 541.196C4008.5 553.549 4010.76 567.258 4010.76 582.323C4010.76 603.716 4005.94 622.396 3996.3 638.365C3986.96 654.334 3972.65 665.934 3953.36 673.165L4015.28 797H3938.9L3883.76 681.3H3834.5V797ZM3906.81 623.451C3917.06 623.451 3925.04 620.89 3930.76 615.768C3936.79 610.344 3939.8 602.51 3939.8 592.266V572.38C3939.8 562.136 3936.79 554.453 3930.76 549.331C3925.04 543.907 3917.06 541.196 3906.81 541.196H3834.5V623.451H3906.81ZM4309.87 797L4287.28 721.976H4181.97L4159.37 797H4089.77L4193.72 481.538H4278.69L4381.28 797H4309.87ZM4235.3 543.907H4233.04L4198.24 663.674H4270.55L4235.3 543.907ZM4572.26 802.423C4544.54 802.423 4521.04 797.753 4501.76 788.413C4482.48 778.771 4466.05 766.418 4452.5 751.353L4497.69 705.706C4519.08 729.81 4545.45 741.862 4576.78 741.862C4593.66 741.862 4606.16 738.397 4614.29 731.467C4622.43 724.537 4626.5 715.347 4626.5 703.898C4626.5 695.16 4624.09 687.929 4619.27 682.204C4614.45 676.178 4604.65 672.111 4589.89 670.002L4558.7 665.934C4525.26 661.716 4500.7 651.622 4485.04 635.653C4469.67 619.684 4461.99 598.443 4461.99 571.928C4461.99 557.767 4464.7 544.811 4470.12 533.06C4475.55 521.31 4483.23 511.216 4493.17 502.78C4503.42 494.343 4515.77 487.865 4530.23 483.346C4545 478.525 4561.72 476.115 4580.4 476.115C4604.2 476.115 4625.14 479.881 4643.22 487.413C4661.3 494.946 4676.81 505.943 4689.77 520.406L4644.12 566.505C4636.59 557.767 4627.4 550.687 4616.55 545.263C4606.01 539.538 4592.6 536.676 4576.33 536.676C4560.96 536.676 4549.52 539.388 4541.98 544.811C4534.45 550.235 4530.68 557.767 4530.68 567.409C4530.68 578.256 4533.55 586.089 4539.27 590.91C4545.3 595.731 4554.94 599.196 4568.2 601.305L4599.38 606.277C4631.92 611.399 4656.02 621.492 4671.69 636.557C4687.36 651.321 4695.19 672.412 4695.19 699.83C4695.19 714.896 4692.48 728.755 4687.06 741.41C4681.64 754.065 4673.65 764.911 4663.11 773.95C4652.86 782.99 4640.06 790.07 4624.69 795.192C4609.32 800.013 4591.85 802.423 4572.26 802.423ZM4785.14 797V742.314H4825.82V536.224H4785.14V481.538H4935.19V536.224H4894.51V742.314H4935.19V797H4785.14ZM5037.62 797V481.538H5106.32V735.987H5226.54V797H5037.62Z" fill="white"/>
<path d="M1981.36 1181.79L1961.61 1142.01H1960.79V1280H1926.5V1088.52H1966.27L2023.88 1186.73L2043.63 1226.51H2044.46V1088.52H2078.75V1280H2038.97L1981.36 1181.79ZM2323.93 1280V1088.52H2450.12V1120.61H2360.14V1166.98H2439.7V1199.07H2360.14V1247.9H2450.12V1280H2323.93ZM2717.76 1280L2673.32 1088.52H2709.53L2728.46 1180.42L2740.26 1239.12H2741.08L2754.8 1180.42L2776.75 1088.52H2816.8L2838.74 1180.42L2852.19 1239.12H2853.01L2865.08 1180.42L2884.56 1088.52H2919.12L2873.31 1280H2832.43L2808.02 1178.77L2796.22 1128.3H2795.67L2783.33 1178.77L2758.91 1280H2717.76ZM3208.88 1283.29C3192.42 1283.29 3178.43 1280.37 3166.9 1274.51C3155.56 1268.66 3145.78 1260.98 3137.55 1251.47L3161.97 1227.88C3168.55 1235.56 3175.86 1241.41 3183.91 1245.43C3192.14 1249.46 3201.19 1251.47 3211.07 1251.47C3222.23 1251.47 3230.64 1249.09 3236.31 1244.34C3241.98 1239.4 3244.81 1232.82 3244.81 1224.59C3244.81 1218.18 3242.98 1212.97 3239.33 1208.95C3235.67 1204.92 3228.81 1202 3218.75 1200.17L3200.65 1197.43C3162.42 1191.39 3143.31 1172.83 3143.31 1141.74C3143.31 1133.14 3144.87 1125.37 3147.97 1118.42C3151.27 1111.47 3155.93 1105.53 3161.97 1100.59C3168 1095.65 3175.22 1091.9 3183.64 1089.34C3192.23 1086.6 3201.93 1085.23 3212.72 1085.23C3227.16 1085.23 3239.78 1087.6 3250.57 1092.36C3261.36 1097.11 3270.6 1104.15 3278.28 1113.48L3253.59 1136.8C3248.84 1130.95 3243.08 1126.19 3236.31 1122.53C3229.54 1118.88 3221.04 1117.05 3210.8 1117.05C3200.37 1117.05 3192.51 1119.06 3187.2 1123.08C3182.08 1126.92 3179.52 1132.41 3179.52 1139.54C3179.52 1146.86 3181.63 1152.25 3185.83 1155.73C3190.04 1159.2 3196.81 1161.76 3206.13 1163.41L3223.96 1166.7C3243.35 1170.18 3257.62 1176.39 3266.76 1185.36C3276.09 1194.13 3280.75 1206.48 3280.75 1222.39C3280.75 1231.53 3279.1 1239.86 3275.81 1247.35C3272.7 1254.67 3268.04 1261.07 3261.82 1266.56C3255.79 1271.86 3248.29 1275.98 3239.33 1278.9C3230.55 1281.83 3220.4 1283.29 3208.88 1283.29ZM3517.31 1280V1088.52H3553.53V1247.9H3628.97V1280H3517.31ZM3860.63 1280V1088.52H3986.83V1120.61H3896.85V1166.98H3976.4V1199.07H3896.85V1247.9H3986.83V1280H3860.63ZM4300.55 1120.61V1280H4264.34V1120.61H4210.03V1088.52H4354.87V1120.61H4300.55ZM4664.5 1120.61V1280H4628.29V1120.61H4573.97V1088.52H4718.82V1120.61H4664.5ZM4948.73 1280V1088.52H5074.92V1120.61H4984.94V1166.98H5064.5V1199.07H4984.94V1247.9H5074.92V1280H4948.73ZM5349.7 1280H5313.48V1088.52H5399.9C5408.68 1088.52 5416.54 1089.89 5423.49 1092.63C5430.44 1095.38 5436.29 1099.4 5441.05 1104.7C5445.99 1109.82 5449.74 1116.04 5452.3 1123.36C5455.04 1130.67 5456.41 1138.81 5456.41 1147.77C5456.41 1160.94 5453.39 1172.28 5447.36 1181.79C5441.51 1191.3 5432.64 1198.07 5420.75 1202.09L5459.98 1280H5419.65L5383.99 1206.2H5349.7V1280ZM5396.33 1175.75C5403.28 1175.75 5408.77 1173.93 5412.79 1170.27C5416.82 1166.43 5418.83 1161.03 5418.83 1154.08V1141.46C5418.83 1134.51 5416.82 1129.21 5412.79 1125.55C5408.77 1121.89 5403.28 1120.07 5396.33 1120.07H5349.7V1175.75H5396.33Z" fill="white"/>
</svg>
